<svg width="1440" height="1024" viewBox="0 0 1440 1024" fill="none" xmlns="http://www.w3.org/2000/svg">
<rect width="1440" height="1024" fill="white"/>
<path d="M808.441 473.082C808.441 467.776 808.431 462.47 808.444 457.165C808.468 446.56 806.322 436.388 802.353 426.594C798.514 417.074 792.942 408.356 785.924 400.888C773.109 387.215 757.521 378.608 739.162 375.066C732.503 373.789 725.712 373.356 718.946 373.777C701.07 374.871 685.078 381.031 671.125 392.343C657.544 403.353 648.211 417.325 642.885 434C641.042 439.794 639.827 445.772 639.263 451.829C639.136 453.17 639.087 454.505 639.086 455.846C639.084 467.932 639.089 480.017 639.103 492.102C639.104 492.934 638.948 493.238 638.042 493.206C634.788 493.09 631.528 493.126 628.275 492.99C625.203 492.861 622.56 491.553 620.214 489.621C616.108 486.238 613.601 481.76 611.732 476.877C609.623 471.365 608.63 465.63 608.378 459.736C608.034 451.657 609.105 443.82 612.145 436.306C614.047 431.606 616.636 427.361 620.686 424.189C623.36 422.095 626.369 420.937 629.821 421.054C631.709 421.118 633.6 421.049 635.49 421.076C636.039 421.083 636.354 420.953 636.595 420.393C641.734 408.346 649.327 397.514 658.885 388.597C671.432 376.857 686.079 369.087 702.826 365.289C708.637 363.988 714.557 363.241 720.508 363.059C736.922 362.497 752.429 365.978 767.028 373.503C774.75 377.477 781.885 382.51 788.229 388.457C797.977 397.501 805.729 408.501 810.982 420.746C811.232 421.326 811.563 421.484 812.161 421.494C814.536 421.53 816.912 421.427 819.288 421.619C822.697 421.895 825.502 423.443 827.961 425.701C832.092 429.495 834.56 434.333 836.341 439.563C838.082 444.778 839.027 450.228 839.146 455.727C839.364 463.194 838.421 470.47 835.788 477.48C834.128 481.899 831.879 485.962 828.473 489.304C825.322 492.396 821.639 494.102 817.163 493.975C814.559 493.902 811.95 493.934 809.344 493.98C808.591 493.993 808.424 493.744 808.427 493.027C808.452 486.379 808.441 479.731 808.441 473.082ZM798.57 543.388L757.674 523.071C747.1 528.89 735.236 531.931 723.181 531.913C683.45 531.913 651.242 499.537 651.242 459.598C651.242 419.66 683.45 387.283 723.181 387.283C762.912 387.283 795.119 419.66 795.119 459.598C795.142 474.345 790.657 488.742 782.273 500.843C787.061 513.254 798.57 543.388 798.57 543.388V543.388ZM681.459 447.391C682.78 449.118 687.123 454.388 691.728 460.67C691.82 459.579 691.982 458.495 692.212 457.426C692.754 455.135 694.187 449.105 698.757 446.786L687.84 433.447C687.84 433.447 683.124 429.543 678.962 433.447C674.801 437.352 678.685 443.766 681.459 447.391ZM735.458 478.18C737.042 476.11 739.26 472.447 736.884 470.218C734.508 467.988 731.814 470.218 731.814 470.218L721.517 482.799C721.517 482.799 722.467 478.976 722.467 477.862C722.467 476.747 725.636 468.148 726.111 465.122C726.586 462.096 728.329 458.115 724.685 456.522C721.041 454.93 719.457 459.389 719.457 459.389L715.021 473.88C715.021 473.88 717.081 464.644 717.556 460.822C718.031 457 721.2 451.904 716.764 450.471C712.328 449.038 710.427 455.248 710.427 455.248L705.358 475.155C705.358 475.155 705.991 459.07 705.991 457.159C705.991 455.248 706.15 451.745 702.981 451.585C699.813 451.426 698.546 455.408 697.753 458.752C696.961 462.096 696.803 475.155 696.169 479.136C695.535 483.117 695.377 484.71 693.793 485.028C692.208 485.347 692.209 482.162 690.624 478.499C689.04 474.836 685.396 470.218 680.802 470.218C676.208 470.218 677.792 474.677 679.376 476.588C680.961 478.499 682.386 485.347 683.654 488.213C684.921 491.08 687.298 496.017 689.198 503.979C691.1 511.942 701.08 513.056 701.08 513.056C701.08 513.056 705.041 513.216 711.694 513.056C718.348 512.897 720.249 504.298 722.467 497.768C724.685 491.239 733.874 480.251 735.458 478.18ZM779.667 444.603C782.441 441.256 785.216 433.448 777.17 433.448C769.125 433.448 762.744 441.535 759.97 447.949C757.196 454.363 757.196 459.941 754.422 459.383C751.647 458.825 751.37 456.036 750.26 449.065C749.151 442.093 748.107 419.356 747.486 413.369C746.815 406.9 745.14 400.633 739.591 400.912C734.043 401.19 733.06 407.233 733.06 410.58C733.06 413.926 734.17 442.093 734.17 442.093L725.292 407.233C725.292 407.233 721.963 396.357 714.195 398.867C706.427 401.377 711.976 410.301 712.808 416.994C713.64 423.687 717.247 439.861 717.247 439.861L708.413 417.347C708.413 417.347 702.709 408.428 696.879 411.741C690.823 415.182 692.57 421.041 695.232 426.392C697.384 430.719 702.954 442.278 704.026 445.936C705.599 446.128 707.087 446.76 708.32 447.761C710.302 445.662 712.778 444.53 715.468 444.53C716.5 444.533 717.525 444.698 718.507 445.019C721.357 445.94 723.404 447.924 724.295 450.524C725.213 450.645 726.11 450.896 726.957 451.271C733.588 454.169 732.846 460.558 732.197 463.792C732.954 463.599 733.732 463.502 734.514 463.501C736.846 463.502 739.087 464.409 740.771 466.032C742.296 467.463 746.747 472.821 739.973 481.672C739.755 481.956 739.404 482.398 738.952 482.966C736.607 485.911 729.47 494.873 727.858 499.619C727.609 500.35 727.365 501.109 727.117 501.878C726.431 504.127 725.626 506.338 724.706 508.501C735.367 508.717 741.66 508.465 741.66 508.465C741.66 508.465 759.138 506.513 762.467 492.569C765.796 478.625 769.957 469.98 772.177 464.96C774.396 459.941 776.893 447.949 779.667 444.603Z" fill="#2760A3"/>
<path d="M578 586.543L588.268 582.242C589.123 586.829 593.259 589.338 597.894 589.338C601.744 589.338 604.953 587.69 604.953 584.321C604.953 575.863 579.782 582.385 579.782 564.251C579.782 554.647 588.268 548.984 598.25 548.984C608.233 548.984 614.793 552.998 616.647 561.098L606.022 564.036C605.381 560.165 602.1 558.159 598.322 558.159C594.328 558.159 591.833 560.237 591.833 563.104C591.833 571.562 617.003 564.896 617.003 583.461C617.003 593.424 608.019 598.584 597.822 598.584C587.483 598.584 580.139 594.069 578 586.543ZM622.565 561.456V597.725H634.33V561.456H622.565ZM635.328 551.278C635.328 547.192 632.048 544.898 628.483 544.898C624.918 544.898 621.638 547.192 621.638 551.278C621.638 555.292 624.918 557.585 628.483 557.585C632.049 557.585 635.328 555.292 635.328 551.278V551.278ZM652.299 572.781C652.299 569.341 654.01 567.405 657.147 567.405C660.142 567.405 661.925 569.269 661.925 572.781C661.925 576.221 660.142 578.157 657.147 578.157C654.01 578.157 652.299 576.078 652.299 572.781V572.781ZM647.949 601.738C647.949 599.731 649.589 598.585 652.085 598.585H662.281C665.205 598.585 666.916 599.517 666.916 601.452C666.916 604.391 662.781 605.752 656.363 605.752C651.158 605.752 647.949 604.462 647.949 601.738V601.738ZM677.184 599.301C677.184 592.206 672.335 588.406 662.353 588.406H652.798C651.372 588.406 650.302 587.905 650.302 586.615C650.302 585.539 650.944 584.822 652.014 584.321C653.702 584.672 655.423 584.84 657.147 584.822C666.417 584.822 673.547 580.952 673.547 572.853C673.566 570.646 672.892 568.489 671.622 566.689C674.688 565.972 677.755 563.678 678.254 559.951L668.913 556.869C668.699 559.091 668.128 561.456 666.987 562.746C664.278 561.384 660.927 560.596 657.147 560.596C647.379 560.596 640.819 564.897 640.819 572.853C640.819 577.655 643.457 581.024 647.664 582.959C643.956 583.82 641.104 586.471 641.104 590.127C641.104 593.639 643.243 596.005 646.238 596.865C641.674 597.51 638.466 599.946 638.466 603.746C638.466 610.555 647.45 612.777 655.935 612.777C666.488 612.777 677.184 609.193 677.184 599.301V599.301ZM691.587 561.456H681.533V597.725H693.298V578.085C693.298 572.566 696.08 570.416 699.359 570.416C702.782 570.416 704.065 572.566 704.065 576.15V597.725H715.831V572.351C715.831 564.61 711.053 560.596 704.564 560.596C699.146 560.596 694.796 563.391 693.013 568.409L691.587 561.456Z" fill="#2760A3"/>
<path d="M735.219 578.874H746.628L740.995 562.316H740.852L735.219 578.874ZM749.694 587.761H732.225L728.802 597.725H717.037L734.364 549.844H747.983L765.31 597.725H753.117L749.694 587.761ZM781.424 581.812C781.424 587.403 784.276 589.84 787.627 589.84C791.977 589.84 794.473 586.184 794.473 579.375C794.473 572.924 791.906 569.627 787.77 569.627C784.348 569.627 781.424 572.494 781.424 578.157V581.812ZM781.424 567.692C782.85 563.391 786.914 560.596 791.977 560.596C801.175 560.596 806.594 568.193 806.594 579.088C806.594 591.13 800.391 598.585 791.193 598.585C786.273 598.585 782.28 596.004 780.783 591.632L779.285 597.725H769.659V545.974H781.424L781.424 567.692ZM827.915 596.649C826.275 597.653 823.565 598.442 820.286 598.442C815.222 598.442 810.374 596.004 810.374 588.693V545.974H822.139V586.113C822.139 588.263 822.995 589.195 824.635 589.195C825.616 589.193 826.568 588.865 827.344 588.263L827.915 596.649ZM852.016 576.078C852.137 575.537 852.185 574.983 852.158 574.43C852.158 571.491 850.376 568.911 847.024 568.911C843.388 568.911 840.964 571.634 840.607 576.078L852.016 576.078ZM853.157 585.181L862.711 588.478C860.501 595.503 854.012 598.585 847.024 598.585C836.186 598.585 829.199 591.632 829.199 579.949C829.199 568.122 836.044 560.596 847.31 560.596C857.862 560.596 862.997 567.907 862.997 576.867C862.977 578.488 862.762 580.1 862.355 581.669H840.465C840.536 586.83 843.246 589.84 847.238 589.84C850.162 589.84 852.23 588.407 853.156 585.181H853.157Z" fill="#FF9D00"/>
</svg>
